<?xml version="1.0" encoding="UTF-8"?>
<svg version="1.1" xmlns="http://www.w3.org/2000/svg" xmlns:xlink="http://www.w3.org/1999/xlink" viewBox="0 0 63.2 121.3" width="1500" height="1500" x="0px" y="0px">
	<!-- ITEM 2 -->
	<g>
		<defs>
			<clipPath id="clip-path-id-viewbox-item-2">
				<rect x="0.0" y="0.0" width="63.2" height="121.3" />
			</clipPath>
		</defs>
		<g>
			<g clip-path="url(#clip-path-id-viewbox-item-2)" transform="translate(-0.0 -0.0)">
				<title>spaceship</title>
				<path d="M30.9,77.3c-3.8-1.8-8.1-3.7-10.6-4.8l-2.1-0.9c-0.2-0.1-0.3-0.2-0.5-0.2c-0.5,0.8-0.9,1.7-1.2,2.6  c-5.4,11.9-3.1,24.6-1.8,25.1c1.2,0.5,12.3-6,17.8-17.9c0.4-0.8,0.8-1.8,1.2-2.6c-0.2-0.1-0.3-0.1-0.5-0.2L30.9,77.3z" style="fill:#F04E23;" />
				<path d="M19.9,87.1c0.8,0.4,6.9-3.2,10.9-9.9l-10.6-4.9C17.8,79.7,19.2,86.8,19.9,87.1z" style="fill:#FFB400;" />
				<path d="M28,69.6c-4-1.8-7.7-3.3-10-5.8l-1.5,3.5c-0.7,1.5-0.2,3.3,1.2,4.2c0.2,0.1,2.5,1.2,2.5,1.2l10.5,4.8  c0,0,2.2,0.9,2.8,1.1c1.6,0.5,3.2-0.3,3.9-1.8l1.5-3.5C35.6,73.2,32,71.4,28,69.6z" style="fill:#04294f;" />
				<path d="M31.3,25.6c-7.1-2.7-20.6,12.1-24,19.6c-3.2,7.1,1.8,9.5,8.3,12.4c0-2.7,0.9-6.1,2.9-10.6  C22.1,39.5,26.4,32.4,31.3,25.6z" style="fill:#04294f;" />
				<path d="M58.9,38.3c-1.9,8.1-4.8,16.2-8,23.9c-2,4.5-4.1,7.3-6.2,9.1c6.5,3,11.9,5.2,15.1-1.8  C63.3,61.7,65.6,41.8,58.9,38.3z" style="fill:#04294f;" />
				<path d="M6.5,105c-1.1,0.9-2,1.9-2.7,3.1c-0.8,1.1-1.4,2.3-1.9,3.5c-0.5,1.2-1,2.5-1.4,3.8c-0.4,1.3-0.5,2.7-0.5,4.1  c0,0.4,0.2,0.8,0.4,1.1c0.6,0.7,1.7,0.8,2.5,0.2c0,0,0,0,0,0l0,0c1.1-0.9,2-1.9,2.8-3.1c0.8-1.1,1.4-2.3,1.9-3.5  c0.5-1.2,1-2.5,1.4-3.8c0.4-1.3,0.5-2.7,0.5-4.1c0-1-0.8-1.7-1.8-1.7C7.3,104.7,6.9,104.8,6.5,105z" style="fill:#F04E23;" />
				<path d="M21.4,104.7c-0.5,0.1-1,0.2-1.5,0.5c-0.3,0.2-0.6,0.5-0.8,0.8c-0.2,0.4-0.2,0.8-0.2,1.2c0.1,0.5,0.3,1,0.6,1.5  c0.7,0.9,1.8,1.4,2.9,1.3c0.5,0,1.1-0.2,1.5-0.5c0.3-0.2,0.6-0.5,0.8-0.8c0.2-0.4,0.2-0.8,0.2-1.2c-0.1-0.5-0.3-1-0.6-1.5  C23.7,105.1,22.5,104.6,21.4,104.7z" style="fill:#F04E23;" />
				<path d="M0.6,93.7c0.5,1.1,1.7,1.5,2.8,1.1l0,0c0.7-0.3,1.4-0.8,1.9-1.4C6.2,92.4,6.8,91,7,89.6c0.1-0.8,0-1.6-0.2-2.4  L6.7,87C6.2,86,5,85.5,3.9,85.9c-0.7,0.3-1.4,0.8-1.9,1.4c-0.9,1.1-1.5,2.4-1.8,3.8c-0.1,0.8,0,1.6,0.2,2.4  C0.6,93.6,0.6,93.7,0.6,93.7z" style="fill:#F04E23;" />
				<path d="M51.1,61.8c3.3-7.7,5.9-15.6,7.8-23.7C63.1,21.2,65.2,3,59.4,0.3S41.2,11.2,31.3,25.4  c-4.9,6.8-9.1,13.9-12.8,21.4c-2,4.5-2.9,7.9-2.9,10.6c-0.1,2.3,0.7,4.6,2.3,6.3c2.3,2.5,6,4,10,5.8s7.6,3.6,10.9,3.8  c2.3,0.1,4.5-0.8,6.2-2.4C47,69.2,49,66.3,51.1,61.8z" style="fill:#ffb400;" />
				<path d="M47.4,26.9c4.2,1.9,8.1,2.6,10.1-1.6c2.1-4.2,0.4-9.3-3.8-11.3s-9.3-0.4-11.3,3.8c0,0,0,0.1,0,0.1l-0.2,0.4  C40.1,22.4,43.1,24.9,47.4,26.9z" style="fill:#04294F;" />
				<path d="M33.4,64.7c1.8-2.1,3.4-4.5,4.6-7c1.2-2.5,2.2-5.1,3.2-7.6s1.9-5.2,2.9-7.8c0.9-2.6,1.7-5.3,2.3-8  c0.2-1.3-0.6-2.5-1.8-2.8c-0.9-0.2-1.7,0.1-2.3,0.8c-1.6,2.2-3.1,4.6-4.5,7c-1.3,2.4-2.8,4.8-4,7.2c-1.2,2.5-2.5,4.9-3.6,7.5  c-1.2,2.6-1.9,5.3-2.3,8.1c-0.2,1.1,0.2,2.2,1.1,2.8c1.1,1.2,2.9,1.2,4.1,0.1C33.2,65,33.3,64.9,33.4,64.7z" style="fill:#04294f;" />

			</g>
		</g>
	</g>


</svg>