<?xml version="1.0" encoding="UTF-8"?>
<svg version="1.1" xmlns="http://www.w3.org/2000/svg" xmlns:xlink="http://www.w3.org/1999/xlink" viewBox="0 0 1500 1500" width="1500" height="1500" x="0px" y="0px">
	<!-- ITEM 1 -->
	<g transform="translate(214.0 518.0) scale(0.9532719919259188 0.955305032223722) rotate(341.25880548292713 339.3575 315.606)">
		<g transform="translate(-0.0 -0.0)">
			<title>astronaut</title>
			<g id="Layer_2-i1" data-name="Layer 2">
				<g id="astronaut-i1">
					<path d="M604.559,11.438c-33.04-16.676-49.56-14.494-60,2.493-8.727-1.091-14.805-.156-16.364,2.494,4.831,2.026,9.507,4.363,14.338,6.857A105.838,105.838,0,0,1,555.778,31.7l.156.156h0l.312.155c1.714,1.4,3.428,2.806,4.987,4.208l.156.156.156.156a60.075,60.075,0,0,1,8.415,9.351l.156.156c.156.156.156.156.156.311,1.4,1.871,2.8,3.9,4.052,5.923a79.842,79.842,0,0,1,5.3,11.065V63.8a51.714,51.714,0,0,1,1.87,6.546V70.5a69.089,69.089,0,0,1,1.87,13.87v.156c.624,15.117-2.961,32.416-11.688,52.209v.312c-.624,1.558-1.4,3.117-2.182,4.675s-1.715,3.429-2.494,5.143a1.183,1.183,0,0,0-.312.624c-.779,1.4-1.4,2.805-2.181,4.207v.156l-.935,1.559c-.624,1.091-1.091,2.026-1.715,2.961-.311.623-.779,1.247-1.091,1.87-.467.935-1.091,1.714-1.558,2.494-.468.623-.779,1.246-1.247,1.87a23.746,23.746,0,0,1-1.714,2.493L555,166.818l-.467.779-.156.156c-28.209,39.273-63.119,45.352-94.911,32.1,0,0-23.378-8.259-40.209-26.805a96.1,96.1,0,0,0-11.533-1.091h0c-14.494-.312-27.429,2.961-38.962,5.766-18.39,4.52-36,9.039-63.741,0h0l-15.585-6.078a259.035,259.035,0,0,1-29.767-15.9c-23.845-14.806-55.793-18.858-78.547-1.715-30.7,23.066-6.7,61.56,9.662,52.053,16.52-9.506,24-.935,34.91,5.455a340.1,340.1,0,0,0,38.027,20.1s11.377,4.832,15.9,6.234a184.7,184.7,0,0,0,41.768,9.663c5.143.467,10.13.779,14.805.779a145.307,145.307,0,0,0,20.1-1.4s3.585-.311,9.351-1.4v.156c-3.428,7.169-12,20.883-21.818,32.883a75.9,75.9,0,0,1-11.689,12.78c-7.325,7.013-14.338,11.377-19.793,10.13l-.623-.156a361.394,361.394,0,0,0-139.8-9.195q-12.858,1.636-26.183,4.208l-16.987,3.74a401.818,401.818,0,0,0-51.9,16.52,45.864,45.864,0,0,0-6.546,2.182,8.779,8.779,0,0,1,.624-1.87c6.857-45.04-29.923-44.728-39.9-43.326,28.831-4.519,24.312,141.666-.624,134.5,21.351,8.727,26.338-9.819,56.885-25.092a350.707,350.707,0,0,1,54.39-18.857l16.52-3.741h0l1.715-.311,18.7-2.961a303.7,303.7,0,0,1,69.352-1.247,268.332,268.332,0,0,1,58.6,12.156s3.429,1.247,8.26,2.494c.156.779.312,1.4.468,2.181,4.831,7.949,24.935,38.5,53.767,44.417a200.591,200.591,0,0,0-66.859,1.714,221.536,221.536,0,0,0-27.9,7.013c-1.715.468-3.585,1.247-5.611,1.871a25.357,25.357,0,0,0-5.455-3.585,2.6,2.6,0,0,0-1.87-.156,119.13,119.13,0,0,0-41.455,20.105,3.179,3.179,0,0,0-1.247,2.337,2.8,2.8,0,0,0,1.091,2.338c.935.623,1.714,1.4,2.805,2.182-1.558.935-3.117,2.026-4.519,2.961A210.889,210.889,0,0,0,194.68,472.9c-6.39,6.078-7.169,6.546-12.78,12.624a312.383,312.383,0,0,0-29.455,36.313,62.857,62.857,0,0,0-5.611,9.974c0-1.247-.156-2.65-.156-4.052C141.691,483.5,104.6,496.28,94.625,500.488c26.494-9.975,59.222,130.911,33.352,130.444,22.909,2.961,39.9-18.078,54.079-38.806a276.375,276.375,0,0,1,50.027-56.105s6.39-5.611,13.091-10.286c61.56-45.04,120-42.547,124.211-41.611h-.156a84.278,84.278,0,0,0,36.78-1.247,136.926,136.926,0,0,0,22.13-7.481,6.906,6.906,0,0,0,1.247-.467s.779.623,2.182,1.714a.545.545,0,0,0,.312.156,66.617,66.617,0,0,0,5.922,4.519,5.069,5.069,0,0,0,5.143.312c3.74-1.87,11.065-5.455,19.325-10.6,2.493-1.558,4.987-3.116,7.48-4.831a128.989,128.989,0,0,0,21.819-18.234,5.332,5.332,0,0,0-.312-7.325c-.155-.156-.311-.312-.467-.312l-.779-.467s-3.9-2.494-2.806-3.585c3.9-3.428,7.481-6.857,11.221-10.441l3.741-3.741c.935-.935,1.714-1.87,2.649-2.805,0,0,9.974-10.753,11.533-12.779l1.714-2.026c3.741-4.364,7.169-8.728,10.6-13.248,1.4-1.87,2.649-3.584,4.052-5.454,16.208-22.442,27.9-45.663,32.728-65.924h0A39.113,39.113,0,0,0,567,310.354l.935,2.026h0c.468.779.78,1.714,1.247,2.493l.779,1.715a60.491,60.491,0,0,1,3.585,10.6c5.766,23.066.467,50.339-7.948,74.5l-6.078,15.585c-1.871,4.52-3.9,8.883-5.923,12.935l-2.026,3.9c0,.155-.155.155-.155.311-.156.312-.312.468-.312.779-3.273,6.079-7.948,6.858-16.988,8.416-2.805.468-6.078.935-9.818,1.715-3.273.623-7.013,1.4-11.065,2.493-21.819,5.922-11.845,26.183-.156,21.663,5.3-2.026,23.845.467,7.325,17.922a74.494,74.494,0,0,0-8.416,10.13c-1.091,1.559-2.026,3.117-2.961,4.676a28.949,28.949,0,0,0-2.961,7.169c-2.65,11.065,4.987,18.39,22.6,22.442,35.221,7.948,43.17-10.442,62.806-36a340.567,340.567,0,0,0,29.144-54.7l6.234-16.053c10.753-29.611,15.584-57.351,14.649-82.911a144.213,144.213,0,0,0-4.207-30.546,95.766,95.766,0,0,0-2.806-9.506,131.35,131.35,0,0,0-24-43.326c-.312-.312-.468-.623-.78-.935a175.06,175.06,0,0,0-18.857-18.39c.312.312.623.467.935.779h0l.623-.623c6.234-7.793,12-15.429,17.144-22.754,16.052-23.221,26.182-44.1,31.793-62.962a122.819,122.819,0,0,0,5.143-25.871,98.976,98.976,0,0,0-.624-24.468C660.508,57.568,626.377,22.5,604.559,11.438Z" fill="#ffb400" />
					<path d="M654.586,175.389c-1.559-7.636-5.923-14.649-13.4-21.351-5.611,18.858-15.9,39.741-31.793,62.962q11.221,8.183,21.507,17.3C649.6,209.832,657.391,190.351,654.586,175.389Z" fill="none" />
					<path d="M654.586,175.389c2.961,14.962-4.832,34.287-23.845,58.911a133.142,133.142,0,0,1,16.364,17.455h0c25.247-32.1,35.066-57.82,30.546-80.885-3.273-16.52-13.559-30.546-31.637-42.7h0a122.681,122.681,0,0,1-5.143,25.871C648.663,160.74,653.027,167.909,654.586,175.389Z" fill="#f04e23" />
					<path d="M647.105,251.755A144.558,144.558,0,0,0,630.741,234.3,254.616,254.616,0,0,0,609.234,217c-5.143,7.325-10.753,14.962-17.143,22.754l-.624.624h0a136.692,136.692,0,0,1,17.923,17.61,4.148,4.148,0,0,1,.779.935,21.743,21.743,0,0,1,5.455-.623,25.807,25.807,0,0,1,25.87,25.871,26.131,26.131,0,0,1-7.324,18.078c1.091,3.117,1.87,6.39,2.805,9.507a144.261,144.261,0,0,1,4.208,30.546C663,307.392,670.17,281.521,647.105,251.755Z" fill="#00aee0" />
					<path d="M641.65,284.327a25.906,25.906,0,0,0-25.87-25.871,20.942,20.942,0,0,0-5.455.623,128.612,128.612,0,0,1,24,43.326A26.131,26.131,0,0,0,641.65,284.327Z" fill="#04294f" />
					<path d="M565.6,401.836c-.78,2.182-1.559,4.363-2.338,6.389-.624,1.715-1.247,3.273-1.87,4.832s-1.247,2.805-1.715,4.208a140.841,140.841,0,0,1,24,5.454c11.221,3.585,24.78,9.195,36.78,18.39h0l1.247-3.272c1.714-4.208,3.428-8.572,4.987-12.78-9.351-7.792-21.195-13.247-31.949-16.676A187.419,187.419,0,0,0,565.6,401.836Z" fill="#f04e23" />
					<path d="M574.48,52.425l.312.624,2.182,4.208c.623,1.4,1.246,2.961,1.87,4.363l.779,2.027a52.014,52.014,0,0,0-5.143-11.222Z" fill="#fff" />
					<path d="M583.831,84.53v4.676a62.779,62.779,0,0,1-.624,9.35,127.865,127.865,0,0,1-10.286,36.157c-.311.623-.467,1.4-.779,2.026C580.87,117.1,584.454,99.647,583.831,84.53Z" fill="#fff" />
					<path d="M582.74,75.179q.234,1.168.467,2.338l.156,2.338.468,4.675a69.161,69.161,0,0,0-1.87-13.87Z" fill="#fff" />
					<path d="M571.051,139.077,569.8,141.57h0c.779-1.558,1.4-3.117,2.181-4.675Z" fill="#fff" />
					<path d="M580.4,65.984c.468,1.559.935,2.961,1.247,4.52-.468-2.182-1.247-4.364-1.87-6.546Z" fill="#fff" />
					<path d="M545.336,394.2c3.741,2.65,7.481,5.455,11.066,8.26,2.337,1.87,4.675,3.9,7.013,5.922.779-2.182,1.558-4.208,2.337-6.389,8.572-24.157,13.715-51.43,7.949-74.5a62.984,62.984,0,0,0-5.611-14.805.572.572,0,0,1-.467.156h-.468c-3.273,21.818-15.9,48-34.131,73.248l.936.468C537.7,389.056,541.44,391.55,545.336,394.2Z" fill="#00aee0" />
					<path d="M540.817,400.433c3.74,2.494,7.637,5.143,11.533,7.637a103.823,103.823,0,0,0,9.039,5.143c.623-1.559,1.247-3.273,1.87-4.832a87.856,87.856,0,0,0-7.013-5.922c-3.585-2.961-7.325-5.61-11.065-8.26s-7.637-5.143-11.533-7.636l-.935-.468a61.673,61.673,0,0,1-4.052,5.455c.312.312.623.467.935.779C533.336,395.134,537.077,397.784,540.817,400.433Z" fill="#04294f" />
					<path d="M534.116,414.927c3.74,2.649,7.48,5.455,11.065,8.26a94.337,94.337,0,0,1,8.415,7.325c2.026-4.052,4.052-8.416,5.923-12.936.623-1.4,1.246-2.805,1.714-4.208a103.554,103.554,0,0,1-9.039-5.142c-3.9-2.338-7.637-4.988-11.533-7.637s-7.481-5.455-11.065-8.26c-.312-.312-.624-.467-.935-.779-3.429,4.519-6.857,8.883-10.6,13.247,1.4.779,2.961,1.714,4.364,2.493C526.479,409.628,530.375,412.278,534.116,414.927Z" fill="#00aee0" />
					<path d="M518.687,412.9c3.584,2.961,7.324,5.61,11.065,8.26s7.636,5.143,11.532,7.636c3.429,2.026,6.7,4.052,10.286,5.923,0-.156.156-.156.156-.312l2.026-3.9c-2.649-2.494-5.61-4.988-8.416-7.325-3.584-2.961-7.324-5.611-11.065-8.26s-7.636-5.143-11.533-7.637a39.582,39.582,0,0,0-4.363-2.493l-1.715,2.026c-.779.935-1.558,1.714-2.337,2.649C515.725,410.563,517.128,411.81,518.687,412.9Z" fill="#04294f" />
					<path d="M529.752,421.161c-3.741-2.65-7.481-5.455-11.065-8.26-1.4-1.247-2.962-2.338-4.364-3.585-2.961,3.429-6.078,6.858-9.351,10.131h0c-.935.935-1.714,1.87-2.649,2.805,2.805,1.558,5.454,3.117,8.1,4.675,3.9,2.338,7.636,4.987,11.532,7.637s7.481,5.454,11.066,8.26l1.091.935c9.039-1.4,13.558-2.182,16.987-8.416a1.191,1.191,0,0,0,.312-.779,110.511,110.511,0,0,1-10.286-5.922A129.791,129.791,0,0,1,529.752,421.161Z" fill="#00aee0" />
					<path d="M521.959,434.564c-3.74-2.65-7.636-5.143-11.532-7.637-2.65-1.558-5.3-3.273-8.105-4.675l-3.74,3.74c2.494,2.338,5.143,4.52,7.793,6.7,3.584,2.961,7.324,5.61,11.065,8.259,2.182,1.559,4.519,3.117,6.7,4.676,3.741-.779,7.013-1.247,9.819-1.714l-1.091-.936A92.657,92.657,0,0,0,521.959,434.564Z" fill="#04294f" />
					<path d="M506.53,432.538c-2.649-2.182-5.3-4.364-7.792-6.7-3.584,3.585-7.325,7.013-11.221,10.442l2.494,2.026h0a1.172,1.172,0,0,1,.311,1.559l.78.467a5.045,5.045,0,0,1,1.091,7.169c-.156.156-.156.312-.312.468A122.134,122.134,0,0,1,470.062,466.2l1.4.935c4.987,3.117,9.818,6.234,14.649,9.662s9.507,6.858,14.027,10.6c4.052,3.273,7.948,6.546,11.844,10.286a88.036,88.036,0,0,1,8.416-10.13c16.52-17.455-2.026-19.949-7.325-17.923-11.533,4.52-21.663-15.74.156-21.662a106.2,106.2,0,0,1,11.065-2.494c-2.338-1.558-4.52-2.961-6.7-4.675C513.855,438.148,510.115,435.5,506.53,432.538Z" fill="#f04e23" />
					<path d="M504.972,419.447h0c3.117-3.273,6.234-6.7,9.351-10.131.779-.935,1.558-1.714,2.338-2.649-2.962-1.091-5.767-2.182-8.728-3.273a383.289,383.289,0,0,1-124.99-79.95h0s36.469-51.273,69.041-109.405c25.091,15.741,59.222,30.079,95.534,38.027a258.11,258.11,0,0,0,61.872,6.078,136.7,136.7,0,0,0-17.923-17.611c-.311-.311-.623-.467-.935-.779A284.282,284.282,0,0,1,556.09,235.7a314.375,314.375,0,0,1-96.625-35.221l.155-.468a79.772,79.772,0,0,1-8.259-3.9c-2.65-1.4-5.3-2.8-7.949-4.364-9.351-5.454-17.61-11.377-24-18.546a77.382,77.382,0,0,0-8.416-.935h0c2.338,9.507,11.689,20.572,25.871,31.482.779.623,1.714,1.246,2.493,1.87-7.013,12.467-14.182,24.468-21.195,35.689h0c-25.4,40.676-47.533,69.975-47.533,69.975-17.923-19.013-26.806-32.572-26.806-32.572a113.676,113.676,0,0,1-11.689,12.78C332.449,291.652,388.242,377.056,504.972,419.447Z" fill="#f04e23" />
					<path d="M486.114,476.954c-4.831-3.428-9.662-6.545-14.649-9.662l-1.4-.935c-2.493,1.714-4.987,3.272-7.481,4.831,1.247,1.091,2.494,2.182,3.9,3.273,4.519,3.74,9.195,7.169,14.026,10.6s9.663,6.546,14.65,9.663a150.53,150.53,0,0,0,13.87,7.792,47.577,47.577,0,0,1,2.961-4.675,151.315,151.315,0,0,0-11.844-10.286C495.465,483.812,490.79,480.383,486.114,476.954Z" fill="#04294f" />
					<path d="M495,494.721c-4.987-3.117-9.819-6.234-14.65-9.663s-9.507-6.857-14.026-10.6c-1.247-1.091-2.65-2.182-3.9-3.273-8.26,4.987-15.585,8.727-19.326,10.6a5.464,5.464,0,0,1-5.142-.312c-2.026-1.4-4.053-2.961-6.234-4.676h0a1.234,1.234,0,0,1-1.715.156l-1.87-1.4a142.242,142.242,0,0,1-22.13,7.48l.311,1.247c41.768,45.819,79.171,42.547,99.587,25.4a31.652,31.652,0,0,1,2.961-7.169C504.037,500.176,499.517,497.37,495,494.721Z" fill="#00aee0" />
					<path d="M443.412,191.6c2.494,1.559,5.3,2.961,7.948,4.364a79.886,79.886,0,0,0,8.26,3.9c31.793,13.247,66.7,7.325,94.912-32.1l.155-.156.468-.779L556.4,165.1c.623-.779,1.091-1.714,1.714-2.493.467-.624.779-1.247,1.247-1.871a21.791,21.791,0,0,0,1.558-2.493c.312-.623.779-1.247,1.091-1.87a28.916,28.916,0,0,0,1.714-2.961l.935-1.559V151.7c.78-1.4,1.559-2.8,2.182-4.208a1.177,1.177,0,0,0,.312-.623c.935-1.714,1.714-3.429,2.494-5.143h0l1.246-2.494.935-2.026V136.9a10.841,10.841,0,0,0,.78-2.026A133.2,133.2,0,0,0,582.9,98.712c.312-3.117.624-6.234.624-9.351V84.53l-.468-4.675-.155-2.338-.468-2.338-.935-4.519V70.5c-.468-1.559-.935-2.961-1.247-4.52l-.623-2.026v-.467l-.779-2.026c-.624-1.4-1.247-2.962-1.871-4.364l-2.182-4.208-.311-.623h0a49.775,49.775,0,0,0-4.052-5.923c0-.156-.156-.156-.156-.311l-.156-.156a94.89,94.89,0,0,0-8.416-9.351l-.155-.156-.156-.156c-1.559-1.4-3.273-2.8-4.987-4.208l-.312-.156h0l-.156-.155a90.6,90.6,0,0,0-13.247-8.416c-4.831-2.494-9.663-4.831-14.338-6.857-1.4-.624-2.961-1.247-4.364-1.715h0a1.852,1.852,0,0,1-2.337,1.091h0c-8.728-2.649-17.767-4.364-26.494-3.273a51.127,51.127,0,0,0-12.78,3.117,55.737,55.737,0,0,0-11.533,6.39,95.55,95.55,0,0,0-19.169,18.858,208.381,208.381,0,0,0-15.429,22.753,243.369,243.369,0,0,0-12.779,24.468,188.706,188.706,0,0,0-9.975,25.559,96.18,96.18,0,0,0-4.208,26.65,50.256,50.256,0,0,0,7.014,25.4h0a1.769,1.769,0,0,1-.624,2.493,58.778,58.778,0,0,0,3.9,4.831C425.957,180.376,434.217,186.3,443.412,191.6Z" fill="#04294f" />
					<path d="M305.487,177.883a149.24,149.24,0,0,1-15.741-6.078s-4.052,34.442-25.87,60a167.381,167.381,0,0,0,15.9,6.234c20.416-21.819,25.715-60,25.715-60.157Z" fill="#f04e23" />
					<path d="M194.679,473.058c-4.207,3.9-8.415,8.1-12.779,12.624-6.39,6.7,34.6,18.234,50.183,50.494q6.546-5.376,13.091-10.286l-.312-.311C229.9,492.383,195.3,473.214,194.679,473.058Z" fill="#f04e23" />
					<path d="M146.055,296.483c-5.611,1.091-11.221,2.338-16.987,3.74,3.584,6.7,16.364,33.04,12.779,64.209,5.455-1.4,11.065-2.649,16.52-3.74h0C162.107,330.3,149.951,304.275,146.055,296.483Z" fill="#f04e23" />
					<path d="M94.625,500.487l-.467.156c-9.351,3.9-24.78,14.806-18.546,50.183,6.078,35.377,29.611,76.989,52.365,79.95C153.847,631.4,121.119,490.513,94.625,500.487Z" fill="#00aee0" />
					<path d="M31.351,273.729c-9.974,1.4-27.741,7.948-30.858,43.793s8.728,81.976,30.079,90.7C55.663,415.394,60.183,269.209,31.351,273.729Z" fill="#00aee0" />
					<path d="M416.3,165.727h0a50.819,50.819,0,0,1-7.013-25.559,91.325,91.325,0,0,1,4.052-26.65,188.65,188.65,0,0,1,9.974-25.559c3.9-8.26,8.26-16.52,12.779-24.468A187.106,187.106,0,0,1,451.36,40.737a91.643,91.643,0,0,1,19.17-18.858,63.961,63.961,0,0,1,11.532-6.389,51.041,51.041,0,0,1,12.78-3.117c8.727-1.091,17.766.623,26.494,3.272h0a1.853,1.853,0,0,0,2.338-1.09h0a2.107,2.107,0,0,0-1.091-2.494,69.8,69.8,0,0,0-13.715-4.208,57.615,57.615,0,0,0-14.65-1.247,51.059,51.059,0,0,0-14.493,2.961,62.253,62.253,0,0,0-13.247,6.7c-8.26,5.454-14.962,12.468-21.2,19.792A184.461,184.461,0,0,0,429.23,59.594c-2.338,4.052-4.675,8.26-6.857,12.468L419.256,78.3c-1.091,2.182-2.026,4.364-2.961,6.39a184.149,184.149,0,0,0-9.819,26.806,89.265,89.265,0,0,0-3.273,28.676,56.993,56.993,0,0,0,2.806,14.338,48.109,48.109,0,0,0,6.545,12.935,2,2,0,0,0,2.494.623l.156-.155A1.432,1.432,0,0,0,416.3,165.727Z" fill="#00aee0" />
					<path d="M234.888,184.273a1.933,1.933,0,0,0-2.026-1.871h0c-5.922.312-12,.624-17.3-.311a13.441,13.441,0,0,1-6.39-2.494,6.266,6.266,0,0,1-1.87-5.143,6.346,6.346,0,0,1,2.182-5.3,13.669,13.669,0,0,1,6.39-2.649c5.3-.779,11.065-.156,16.987.779h0a2.215,2.215,0,0,0,2.338-1.558,2.093,2.093,0,0,0-1.091-2.182,47.126,47.126,0,0,0-9.039-2.961,29.939,29.939,0,0,0-9.819-.78,18.305,18.305,0,0,0-10.441,3.9,14.486,14.486,0,0,0-3.741,4.987,15.372,15.372,0,0,0-1.247,5.766,18.821,18.821,0,0,0,.936,5.922,12.211,12.211,0,0,0,3.74,5.143,13.512,13.512,0,0,0,5.143,2.65,29.805,29.805,0,0,0,5.143.935,48.707,48.707,0,0,0,18.857-2.805A1.951,1.951,0,0,0,234.888,184.273Z" fill="#04294f" />
					<path d="M190.472,320.951c8.883-1.559,26.182-3.585,43.169-.624a2.815,2.815,0,0,0,3.273-3.272c-1.4-8.728-4.675-24.468-10.909-32.105a2.378,2.378,0,0,0-1.715-.935,97.329,97.329,0,0,0-20.1-1.714,131.327,131.327,0,0,0-25.871,2.649,2.653,2.653,0,0,0-2.026,1.559,2.393,2.393,0,0,0,0,2.493,119.76,119.76,0,0,1,10.91,29.767A2.831,2.831,0,0,0,190.472,320.951Zm26.65-33.819a2.808,2.808,0,0,1,1.558.312,16.546,16.546,0,0,1,4.208,4.519,25.173,25.173,0,0,1,2.649,5.455,24.7,24.7,0,0,1,1.247,6.078,14.153,14.153,0,0,1-.935,6.234,1.968,1.968,0,0,1-2.649,1.247h0a1.881,1.881,0,0,1-1.091-1.091l-.156-.156c-.78-1.715-1.4-3.273-2.026-4.987-.624-1.559-1.091-3.117-1.715-4.832a46.517,46.517,0,0,1-1.558-4.987,29.225,29.225,0,0,1-1.247-5.3v-.311a2.242,2.242,0,0,1,1.715-2.182Zm-13.715-.312a2.806,2.806,0,0,1,1.558.312,16.534,16.534,0,0,1,4.208,4.52,25.194,25.194,0,0,1,2.65,5.454,26.342,26.342,0,0,1,1.247,6.078,14.154,14.154,0,0,1-.936,6.234,1.967,1.967,0,0,1-2.649,1.247h0a1.881,1.881,0,0,1-1.091-1.091l-.156-.156c-.779-1.714-1.4-3.273-2.026-4.987-.623-1.559-1.091-3.117-1.714-4.831a46.661,46.661,0,0,1-1.559-4.987,29.18,29.18,0,0,1-1.246-5.3V289a2.08,2.08,0,0,1,1.714-2.182Zm-16.676,3.9a2.089,2.089,0,0,1,1.715-2.337h0a2.814,2.814,0,0,1,1.558.311,16.564,16.564,0,0,1,4.208,4.52,25.129,25.129,0,0,1,2.649,5.455,26.29,26.29,0,0,1,1.247,6.078,14.153,14.153,0,0,1-.935,6.234,2.149,2.149,0,0,1-2.649,1.246,1.878,1.878,0,0,1-1.091-1.091l-.156-.155c-.779-1.715-1.4-3.273-2.026-4.988-.624-1.558-1.091-3.117-1.715-4.831a46.817,46.817,0,0,1-1.558-4.987,29.245,29.245,0,0,1-1.247-5.3Z" fill="#ffb400" />
					<path d="M190,326.25a3.036,3.036,0,0,0,1.247-.156c8.571-1.4,25.247-3.429,41.455-.624a7.468,7.468,0,0,0,6.858-2.181,8.461,8.461,0,0,0,2.337-7.014c-1.247-8.259-3.584-18.39-7.325-26.494a40.879,40.879,0,0,0-4.675-7.948,8.123,8.123,0,0,0-4.675-2.805,124.379,124.379,0,0,0-48,.935,8.009,8.009,0,0,0-6.234,9.507,7.8,7.8,0,0,0,.779,2.026h0q.234.467.467.935a115.711,115.711,0,0,1,9.975,27.429A7.991,7.991,0,0,0,190,326.25ZM176.289,289a2.393,2.393,0,0,1,0-2.493,2.653,2.653,0,0,1,2.026-1.559,131.327,131.327,0,0,1,25.871-2.649,108.293,108.293,0,0,1,20.1,1.714,3.714,3.714,0,0,1,1.715.935c6.078,7.637,9.506,23.377,10.909,32.105a2.815,2.815,0,0,1-3.273,3.272c-16.831-2.961-34.286-.779-43.169.624a2.82,2.82,0,0,1-3.273-2.338A118.664,118.664,0,0,0,176.289,289Z" fill="#04294f" />
					<path d="M189.536,301.314c.624,1.559,1.091,3.273,1.715,4.831a41.85,41.85,0,0,0,2.026,4.987l.156.156a1.939,1.939,0,0,0,2.805.935,2.454,2.454,0,0,0,1.091-1.091,14.151,14.151,0,0,0,.935-6.233,21.136,21.136,0,0,0-1.247-6.078,25.129,25.129,0,0,0-2.649-5.455,16.564,16.564,0,0,0-4.208-4.52,1.815,1.815,0,0,0-1.559-.311,2.088,2.088,0,0,0-1.714,2.337h0v.312a52.745,52.745,0,0,0,1.247,5.3C188.446,298.041,189.069,299.6,189.536,301.314Z" fill="#04294f" />
					<path d="M201.693,289.47c.311,1.714.779,3.584,1.246,5.3s1.091,3.273,1.559,4.988c.623,1.558,1.091,3.272,1.714,4.831a42.087,42.087,0,0,0,2.026,4.987l.156.156a3.65,3.65,0,0,0,1.091,1.091,1.967,1.967,0,0,0,2.649-1.247h0a14.154,14.154,0,0,0,.936-6.234,21.136,21.136,0,0,0-1.247-6.078,25.223,25.223,0,0,0-2.65-5.455,16.545,16.545,0,0,0-4.208-4.519,1.81,1.81,0,0,0-1.558-.312,2.09,2.09,0,0,0-1.714,2.338Z" fill="#04294f" />
					<path d="M215.407,289.47v.311c.312,1.715.779,3.585,1.247,5.3s1.091,3.273,1.558,4.987a44.022,44.022,0,0,0,1.715,4.832,41.986,41.986,0,0,0,2.026,4.987l.156.156a1.881,1.881,0,0,0,1.091,1.091,1.968,1.968,0,0,0,2.649-1.247h0a14.153,14.153,0,0,0,.935-6.234,21.1,21.1,0,0,0-1.247-6.078,25.173,25.173,0,0,0-2.649-5.455,16.546,16.546,0,0,0-4.208-4.519,2.207,2.207,0,0,0-2.961.467,2.094,2.094,0,0,0-.312,1.4Z" fill="#04294f" />
					<path d="M613.13,323.912c9.351-2.494,14.65-13.247,11.689-23.845s-12.78-16.987-22.286-14.338-14.65,13.247-11.689,23.845C593.649,320.172,603.623,326.561,613.13,323.912Z" fill="#04294f" />
					<path d="M448.088,296.639A10.909,10.909,0,1,0,459,307.548h0A10.842,10.842,0,0,0,448.088,296.639Zm-1.559,15.74a5.611,5.611,0,1,1,5.611-5.61h0a5.587,5.587,0,0,1-5.611,5.61Z" fill="#04294f" />
					<circle cx="475.673" cy="311.132" r="5.455" fill="#f04e23" />
					<path d="M467.1,320.016a5.455,5.455,0,1,0,5.455,5.454h0A5.42,5.42,0,0,0,467.1,320.016Z" fill="#f04e23" />
					<circle cx="446.529" cy="306.769" r="5.611" fill="#00aee0" />
					<path d="M466.166,269.677a11.687,11.687,0,0,0,3.117,2.338,14.291,14.291,0,0,0,3.584,1.4,8.982,8.982,0,0,0,4.052.156,2.209,2.209,0,0,0,.935-.312,2.132,2.132,0,0,0,.624-3.116h0v-.156a10.108,10.108,0,0,0-2.494-2.65,14.667,14.667,0,0,0-2.805-1.87,11.269,11.269,0,0,0-3.117-1.4,14.819,14.819,0,0,0-3.584-.779h-.312a1.975,1.975,0,0,0-.935.156,2.3,2.3,0,0,0-1.247,2.961h0A9.289,9.289,0,0,0,466.166,269.677Z" fill="#04294f" />
					<path d="M459.309,280.275a13.642,13.642,0,0,0,6.7,3.74,8.921,8.921,0,0,0,4.052.156,2.213,2.213,0,0,0,.935-.312,2.153,2.153,0,0,0,.624-3.117v-.156a13.953,13.953,0,0,0-5.3-4.675,11.24,11.24,0,0,0-3.117-1.4,13.37,13.37,0,0,0-3.585-.779h-.311a1.973,1.973,0,0,0-.935.156,2.3,2.3,0,0,0-1.247,2.961h0A8.638,8.638,0,0,0,459.309,280.275Z" fill="#04294f" />
					<path d="M464.14,295.392a2.152,2.152,0,0,0,.623-3.117v-.156a13.524,13.524,0,0,0-2.493-2.649,14.6,14.6,0,0,0-2.806-1.871,11.244,11.244,0,0,0-3.116-1.4,14.723,14.723,0,0,0-3.585-.779h-.312a1.988,1.988,0,0,0-.935.155,2.306,2.306,0,0,0-1.247,2.962h0a8.446,8.446,0,0,0,2.338,3.428,11.666,11.666,0,0,0,3.117,2.338,14.323,14.323,0,0,0,3.585,1.4,8.995,8.995,0,0,0,4.052.155C463.517,295.7,463.828,295.7,464.14,295.392Z" fill="#04294f" />
					<path d="M514.323,280.275c.312-1.091.779-2.026,1.091-2.961l.156-.468c.311-1.091.779-2.182,1.091-3.273A2.68,2.68,0,0,0,515.1,270.3c-1.558-.623-3.273-1.246-4.831-1.87l-.624-.312c-1.558-.623-3.117-1.246-4.519-1.87l-.779-.311c-1.4-.624-2.962-1.247-4.364-1.871l-.935-.467L495,261.729a206.272,206.272,0,0,1-33.352-18.858,2.705,2.705,0,0,0-2.182-.467,2.411,2.411,0,0,0-1.714,1.246c-.156.468-23.533,45.2-40.832,66.859a2.5,2.5,0,0,0,.312,3.584c1.091.936,26.961,22.91,57.975,33.2a1.4,1.4,0,0,0,.779.156,2.663,2.663,0,0,0,2.026-1.091c1.091-1.559,24.157-34.754,36.157-65.924Zm-91.95,31.637c15.117-19.637,33.351-53.456,38.494-63.119a239.268,239.268,0,0,0,28.988,16.364c-2.494,5.923-9.507,21.663-12.78,26.183a2.364,2.364,0,0,0-.467,2.026,2.77,2.77,0,0,0,1.247,1.714c.467.312,10.909,6.39,19.948,9.195a405.989,405.989,0,0,1-22.754,37.871c-24.78-8.727-46.287-25.091-52.676-30.234Zm77.612-21.663a3.057,3.057,0,0,1-3.585,1.558,44.1,44.1,0,0,1-5.61-2.493,2.884,2.884,0,0,1-1.247-3.9h0c1.4-2.494,2.961-6.234,4.052-8.728a2.929,2.929,0,0,1,3.74-1.558h0c1.559.623,3.117,1.246,4.832,2.026a3.091,3.091,0,0,1,1.714,3.74,59.571,59.571,0,0,1-3.9,9.351Z" fill="#04294f" />
					<path d="M431.724,474.928h0q-5.845-5.376-11.221-11.221l-.468-.623c26.494-11.845,47.689-33.507,49.871-35.845l3.273,2.338,7.637,5.454c2.493,1.87,5.143,3.585,7.636,5.455a1.4,1.4,0,0,0,1.714-.156c.156-.156.156-.156.156-.312a1.24,1.24,0,0,0-.311-1.558h0l-2.494-2.026-4.675-3.9-7.169-5.922L463.517,416.8c-.78-.779-1.559-1.4-2.338-2.182a2.458,2.458,0,0,0-3.429.312,156.041,156.041,0,0,1-14.961,13.715l-.156.155c-1.091.78-2.026,1.715-3.117,2.494-1.559,1.247-3.117,2.494-4.831,3.74a140.808,140.808,0,0,1-27.274,16.053,2.7,2.7,0,0,0-.623,4.519s.467.312,1.247.935c3.117,3.429,6.389,6.7,9.818,9.975s6.857,6.233,10.442,9.2l1.87,1.4a1.233,1.233,0,0,0,1.714-.156h0a1.61,1.61,0,0,0-.155-2.026Z" fill="#04294f" />
					<path d="M573.857,437.837a1.955,1.955,0,0,0-1.715.935,2.031,2.031,0,0,0,.624,2.805h0a64.787,64.787,0,0,0,7.325,3.74c2.493,1.091,4.831,2.182,7.324,3.117l7.325,2.961c2.338.935,4.676,1.87,7.169,2.961h.156a1.945,1.945,0,0,0,2.65-1.091,1.971,1.971,0,0,0-.156-1.87,21.588,21.588,0,0,0-6.39-6.078,35.3,35.3,0,0,0-7.637-3.9,48.75,48.75,0,0,0-8.1-2.494A26.448,26.448,0,0,0,573.857,437.837Z" fill="#04294f" />
					<path d="M589.285,456.382a10.183,10.183,0,0,0-3.584-2.026,15.864,15.864,0,0,0-3.9-.935,12.8,12.8,0,0,0-4.208.312l-.935.468a2.222,2.222,0,0,0-.312,3.116l.156.156a15.646,15.646,0,0,0,2.961,2.494,19.375,19.375,0,0,0,3.117,1.558,24.557,24.557,0,0,0,3.117,1.091,12.144,12.144,0,0,0,3.429.468h.623a1.165,1.165,0,0,0,.779-.156,2.187,2.187,0,0,0,1.247-2.805h0A6.205,6.205,0,0,0,589.285,456.382Z" fill="#04294f" />
					<path d="M566.688,504.383c-2.806-1.558-5.611-3.117-8.416-4.363-2.805-1.4-5.767-2.494-8.728-3.741-2.961-1.091-5.922-2.182-9.039-3.117h-.156a3.86,3.86,0,0,0-4.675,2.338,31.316,31.316,0,0,1-1.558,3.273,39.639,39.639,0,0,1-2.026,3.429c-1.4,2.181-2.962,4.519-4.676,6.7-1.558,2.182-3.273,4.364-4.987,6.7l-4.987,6.7h0a1.994,1.994,0,0,0,.467,2.8,2.118,2.118,0,0,0,2.338,0c2.182-1.87,4.364-3.74,6.39-5.61,2.026-2.026,4.052-4.052,5.922-6.079a73.192,73.192,0,0,0,5.455-6.7c1.091-1.558,2.026-3.117,2.961-4.675l5.61,2.026,8.728,3.117c2.961,1.091,5.766,2.026,8.571,3.117a77.447,77.447,0,0,1,8.26,3.584h0a1.924,1.924,0,0,0,2.65-.935,2.49,2.49,0,0,0-.312-2.338A26.458,26.458,0,0,0,566.688,504.383Z" fill="#04294f" />
					<path d="M567.934,312.535a2.092,2.092,0,0,0,1.091-2.182,32.774,32.774,0,0,0-2.961-8.26,44.5,44.5,0,0,0-4.831-7.169,38.379,38.379,0,0,0-6.39-5.922,25.6,25.6,0,0,0-8.1-3.74,2.1,2.1,0,0,0-2.493,1.558,2.048,2.048,0,0,0,.467,1.87l.156.156c1.87,2.026,3.74,3.741,5.455,5.611s3.428,3.74,5.143,5.766l4.987,5.922,5.143,6.078.155.156a2.321,2.321,0,0,0,1.4.624h.468C567.623,312.691,567.779,312.691,567.934,312.535Z" fill="#04294f" />
					<path d="M603,309.106l.156,7.637a.736.736,0,0,0,.779.779.573.573,0,0,0,.468-.156l5.61-4.519a1.167,1.167,0,0,1,.779-.156l6.7,2.338a.654.654,0,0,0,.935-.468v-.467l-2.494-7.169c-.156-.156,0-.468.156-.624l4.208-6.234a.667.667,0,0,0-.156-1.091c-.156-.156-.312-.156-.623-.156l-7.169.156a.813.813,0,0,1-.624-.311l-4.208-6.078a.768.768,0,0,0-1.09-.156c-.156.156-.312.311-.312.467l-1.87,7.169a.5.5,0,0,1-.468.468l-6.7,2.337a.7.7,0,0,0-.468.936.335.335,0,0,0,.312.311L603,308.483C602.844,308.639,603,308.8,603,309.106Z" fill="#00aee0" />
					<path d="M593.649,167.6a15.549,15.549,0,0,0-13.4.467,22.091,22.091,0,0,0-11.221,24.624A15.565,15.565,0,0,0,577.6,203.13a16.3,16.3,0,0,0,6.078,1.247A16.87,16.87,0,0,0,591,202.663a22,22,0,0,0,11.065-24.624A15.1,15.1,0,0,0,593.649,167.6Zm0,21.351a14.4,14.4,0,0,1-6.234,6.7,7.544,7.544,0,0,1-11.065-4.987,14.125,14.125,0,0,1,7.169-15.584,8.444,8.444,0,0,1,3.9-.936,6.747,6.747,0,0,1,2.961.624,7.862,7.862,0,0,1,4.208,5.454,12.235,12.235,0,0,1-.935,8.728Z" fill="#04294f" />
					<path d="M608.922,140.012c-4.363-2.026-9.662.779-12.156,5.922-2.337,5.3-.779,11.065,3.429,13.091,4.364,2.026,9.818-.779,12.156-5.922C614.845,147.8,613.286,141.882,608.922,140.012Z" fill="#04294f" />
					<ellipse cx="562.365" cy="15.965" rx="10.286" ry="8.883" transform="translate(267.35 495.001) rotate(-59.999)" fill="#f04e23" />
					<path d="M579.935,34.971h0c6.078,3.74,12.156,7.636,17.766,11.844l4.208,3.273c1.4,1.091,2.65,2.337,4.052,3.428,2.65,2.338,5.3,4.676,7.637,7.169a138.013,138.013,0,0,1,14.026,16.053c4.364,5.766,8.26,11.688,12,17.766h0a2.032,2.032,0,0,0,2.806.624,1.932,1.932,0,0,0,.779-2.338,92.994,92.994,0,0,0-9.974-20.1c-1.091-1.559-2.026-3.117-3.117-4.676s-2.182-2.961-3.429-4.519a48.175,48.175,0,0,0-3.74-4.208c-1.4-1.247-2.494-2.8-3.9-4.052A108.549,108.549,0,0,0,601.6,41.049a96.124,96.124,0,0,0-20.1-9.819A1.967,1.967,0,0,0,579,32.321a2.355,2.355,0,0,0,.936,2.65Z" fill="#04294f" />
					<path d="M666.43,189.26v.311c-1.4,4.364-3.117,8.728-4.831,13.092-.935,2.181-1.714,4.363-2.805,6.389-.468,1.091-.935,2.182-1.4,3.117a19.379,19.379,0,0,1-1.559,3.117,132.593,132.593,0,0,1-14.961,23.533h0a1.322,1.322,0,0,0,1.87,1.87h0a53.755,53.755,0,0,0,9.819-10.753c.779-.935,1.4-2.026,2.181-2.961a21.3,21.3,0,0,0,2.026-3.117l1.871-3.117,1.714-3.273c1.091-2.182,2.182-4.364,3.117-6.546s1.87-4.519,2.649-6.7l1.247-3.429c.312-1.091.779-2.337,1.091-3.428.468-1.715.935-3.585,1.247-5.3,1.87.312,3.9.623,5.766,1.091a1.332,1.332,0,0,0,.935-2.494,73.921,73.921,0,0,0-7.636-2.649A2.069,2.069,0,0,0,666.43,189.26Z" fill="#04294f" />
					<path d="M658.326,161.83a25.5,25.5,0,0,0-3.117,2.65,1.436,1.436,0,0,0,1.247,2.338,15.864,15.864,0,0,0,3.9-.935,32.005,32.005,0,0,0,7.013-3.585,24.18,24.18,0,0,0,3.117-2.494,1.456,1.456,0,0,0-.156-2.026,1.146,1.146,0,0,0-.935-.311,15.819,15.819,0,0,0-3.9.935,27.706,27.706,0,0,0-7.169,3.428Z" fill="#04294f" />
					<path d="M651.625,158.558a28.65,28.65,0,0,0,3.9-1.247,25.772,25.772,0,0,0,6.389-4.364,23.935,23.935,0,0,0,2.65-2.961,1.478,1.478,0,0,0-.312-2.026,1.368,1.368,0,0,0-1.091-.156,26.409,26.409,0,0,0-3.74,1.247,29.931,29.931,0,0,0-6.546,4.364,23.927,23.927,0,0,0-2.649,2.961,1.368,1.368,0,0,0-.156,1.091,1.221,1.221,0,0,0,1.559,1.091Z" fill="#04294f" />
					<path d="M77.015,316.743a53.668,53.668,0,0,0-6.546,2.182l-.312.935c-.779,2.338-1.247,4.675-1.87,7.013l-1.714,7.013c-.624,2.338-1.247,4.52-1.87,6.858v.155a2,2,0,0,0,1.4,2.494,2.046,2.046,0,0,0,1.87-.468,19.775,19.775,0,0,0,5.143-6.7,33.466,33.466,0,0,0,2.806-7.481,42.73,42.73,0,0,0,1.246-7.792,39.622,39.622,0,0,0-.155-4.208Z" fill="#04294f" />
					<path d="M315.461,372.536c-.156-.623-.311-1.091-.467-1.714A3.558,3.558,0,0,0,315.461,372.536Z" fill="#04294f" />
					<path d="M306.734,368.329c1.558,1.09,8.26,2.493,8.26,2.493l-.468-1.87-1.714-7.013-1.714-7.013a71.957,71.957,0,0,0-2.026-7.169V347.6a1.9,1.9,0,0,0-1.4-1.247,2,2,0,0,0-2.494,1.4h0a23.159,23.159,0,0,0-.935,7.948,34.873,34.873,0,0,0,1.091,7.948A29.967,29.967,0,0,0,306.734,368.329Z" fill="#04294f" />
					<path d="M238.161,474.461a8.1,8.1,0,0,0,11.065,1.87c7.169-4.831,21.507-13.715,37.248-17.923a7.528,7.528,0,0,0,5.3-4.831,8.11,8.11,0,0,0-.779-7.325,113.563,113.563,0,0,0-16.52-19.948,42.454,42.454,0,0,0-8.727-6.234,8.232,8.232,0,0,0-5.455-.623,125.442,125.442,0,0,0-43.325,20.883,8,8,0,0,0-1.715,11.221,7.386,7.386,0,0,0,1.559,1.559h0l1.4,1.091A106.787,106.787,0,0,1,238.161,474.461Zm-19.325-27.9a2.959,2.959,0,0,1,1.247-2.338,117.816,117.816,0,0,1,41.455-20.1,2.534,2.534,0,0,1,1.87.156c8.884,4.519,18.39,17.3,23.377,24.624a3.139,3.139,0,0,1,.312,2.649,2.91,2.91,0,0,1-1.87,1.714c-16.52,4.52-31.481,13.559-38.806,18.7a2.921,2.921,0,0,1-3.9-.779,117.752,117.752,0,0,0-22.442-22.442,2.487,2.487,0,0,1-1.247-2.182Z" fill="#04294f" />
					<path d="M230.213,446.252l.156.156a30.851,30.851,0,0,0,3.428,4.208c1.247,1.247,2.338,2.494,3.585,3.9,1.246,1.247,2.337,2.494,3.584,3.585a45.289,45.289,0,0,0,3.9,3.74l.156.156a2.04,2.04,0,0,0,2.961-.312,2.51,2.51,0,0,0,.468-1.4,16.068,16.068,0,0,0-1.715-6.078,22.476,22.476,0,0,0-3.584-4.988,22.232,22.232,0,0,0-4.675-3.9,18.724,18.724,0,0,0-5.767-2.338,2.349,2.349,0,0,0-2.493,3.273Z" fill="#04294f" />
					<path d="M243.3,438.772a30.993,30.993,0,0,0,3.429,4.208c1.246,1.246,2.337,2.493,3.584,3.9,1.247,1.246,2.338,2.493,3.584,3.584a45.016,45.016,0,0,0,3.9,3.741l.156.155a2.51,2.51,0,0,0,1.4.468,2.061,2.061,0,0,0,1.87-2.182,16.086,16.086,0,0,0-1.714-6.078,22.5,22.5,0,0,0-3.584-4.987,28.223,28.223,0,0,0-4.676-3.9,18.683,18.683,0,0,0-5.766-2.338,2.236,2.236,0,0,0-2.494,1.558,1.919,1.919,0,0,0,.312,1.559Z" fill="#04294f" />
					<path d="M255.928,433.317a30.2,30.2,0,0,0,3.272,4.208c1.247,1.247,2.338,2.493,3.585,3.9a38.956,38.956,0,0,0,3.584,3.585,45.289,45.289,0,0,0,3.9,3.74l.156.156a2.04,2.04,0,0,0,2.961-.312,2.513,2.513,0,0,0,.468-1.4,16.091,16.091,0,0,0-1.714-6.078,22.5,22.5,0,0,0-3.585-4.987,22.207,22.207,0,0,0-4.675-3.9,18.724,18.724,0,0,0-5.767-2.338,1.917,1.917,0,0,0-1.558.312,2.03,2.03,0,0,0-.624,2.805h0Z" fill="#04294f" />
					<path d="M134.522,611.607a2.239,2.239,0,0,0-1.87-2.494,33.683,33.683,0,0,0-5.61,0,29.072,29.072,0,0,0-5.3,1.091,34.162,34.162,0,0,0-5.143,1.87,22.372,22.372,0,0,0-4.831,2.961,2.1,2.1,0,0,0-.78,1.4,2.015,2.015,0,0,0,1.87,2.338,33.7,33.7,0,0,0,5.611,0,29.107,29.107,0,0,0,5.3-1.091,34.241,34.241,0,0,0,5.143-1.87,22.4,22.4,0,0,0,4.831-2.962A2.458,2.458,0,0,0,134.522,611.607Z" fill="#04294f" />
					<path d="M83.093,521.527a33.9,33.9,0,0,0,5.61,0,29.09,29.09,0,0,0,5.3-1.091,34.2,34.2,0,0,0,5.143-1.87,22.4,22.4,0,0,0,4.831-2.962,2.105,2.105,0,0,0-1.091-3.74h0a16.929,16.929,0,0,0-5.61,0,34.847,34.847,0,0,0-10.442,2.961A22.356,22.356,0,0,0,82,517.786a2.105,2.105,0,0,0,1.091,3.741Z" fill="#04294f" />
					<path d="M98.677,536.644a85.814,85.814,0,0,0,8.26-2.8,53.516,53.516,0,0,0,7.948-3.9,2.03,2.03,0,0,0,.624-2.805,1.956,1.956,0,0,0-1.714-.935,55.386,55.386,0,0,0-8.728.935,82.727,82.727,0,0,0-8.416,2.026,86.277,86.277,0,0,0-8.26,2.8,53.564,53.564,0,0,0-7.948,3.9,2.029,2.029,0,0,0-.623,2.8,1.955,1.955,0,0,0,1.714.935,41.584,41.584,0,0,0,8.728-.935A82.645,82.645,0,0,0,98.677,536.644Z" fill="#04294f" />
					<path d="M102.729,553.164c3.117-.779,6.078-1.87,9.2-2.961a74.862,74.862,0,0,0,8.884-4.052,2.192,2.192,0,0,0,.779-2.806,1.778,1.778,0,0,0-1.87-.935,68.405,68.405,0,0,0-9.663,1.247c-3.117.624-6.234,1.4-9.351,2.182-3.117.935-6.078,1.87-9.2,2.961a74.849,74.849,0,0,0-8.883,4.052,2.189,2.189,0,0,0-.779,2.805,1.776,1.776,0,0,0,1.87.935,68.257,68.257,0,0,0,9.663-1.246A67.681,67.681,0,0,0,102.729,553.164Z" fill="#04294f" />
					<path d="M107.405,569.528c3.117-.935,6.078-1.87,9.039-2.961a63.164,63.164,0,0,0,8.727-4.052,2.239,2.239,0,0,0,.78-2.806,1.779,1.779,0,0,0-1.871-.935,68.41,68.41,0,0,0-9.662,1.247c-3.117.624-6.234,1.4-9.351,2.182-3.117.935-6.078,1.87-9.195,2.961a74.849,74.849,0,0,0-8.883,4.052,2.189,2.189,0,0,0-.779,2.8,1.775,1.775,0,0,0,1.87.935,68.261,68.261,0,0,0,9.662-1.246A87.956,87.956,0,0,0,107.405,569.528Z" fill="#04294f" />
					<path d="M113.171,585.424c2.8-.779,5.767-1.714,8.572-2.8a57,57,0,0,0,8.26-3.9,2.031,2.031,0,0,0,.623-2.806,1.956,1.956,0,0,0-1.714-.935,59.683,59.683,0,0,0-9.039,1.091c-2.962.624-5.923,1.247-8.728,2.026s-5.766,1.715-8.572,2.806a56.839,56.839,0,0,0-8.259,3.9,2.237,2.237,0,0,0-.78,2.8,1.778,1.778,0,0,0,1.87.935,59.553,59.553,0,0,0,9.04-1.091A54.565,54.565,0,0,0,113.171,585.424Z" fill="#04294f" />
					<path d="M118.47,601.632a61.586,61.586,0,0,0,7.013-2.337,38.826,38.826,0,0,0,6.7-3.429,2.03,2.03,0,0,0,.623-2.8,1.713,1.713,0,0,0-1.559-.935,40.353,40.353,0,0,0-7.48.623,64.118,64.118,0,0,0-14.182,4.052,38.826,38.826,0,0,0-6.7,3.429,2.029,2.029,0,0,0-.623,2.8,1.791,1.791,0,0,0,1.714.935,40.45,40.45,0,0,0,7.481-.623C113.8,602.879,116.132,602.256,118.47,601.632Z" fill="#04294f" />
					<path d="M154.782,533.215a50.364,50.364,0,0,0-1.246-8.26q-.468-1.636-.935-3.272a48.227,48.227,0,0,0-5.611,9.974,9.577,9.577,0,0,0,.156,2.026l.467,7.636c.156,2.494.312,4.988.624,7.637v.156a1.972,1.972,0,0,0,2.182,1.87,1.917,1.917,0,0,0,1.714-1.091,26.568,26.568,0,0,0,2.494-8.26A50.35,50.35,0,0,0,154.782,533.215Z" fill="#04294f" />
					<path d="M374.683,220.585a1.824,1.824,0,0,0-2.649.623h0c-3.429,5.455-6.857,10.91-10.13,16.676-1.714,2.805-3.273,5.611-4.831,8.572l-.312.623-.156.312c7.013-.624,9.507-1.715,9.507-1.715a35.107,35.107,0,0,0,2.493-4.052,101.754,101.754,0,0,0,4.676-9.195,33.6,33.6,0,0,0,2.649-10.13A3.268,3.268,0,0,0,374.683,220.585Z" fill="#04294f" />
					<path d="M39.455,391.55a2.114,2.114,0,0,0,1.091-2.805,2.449,2.449,0,0,0-1.091-1.091A21.854,21.854,0,0,0,34,386.1a30.882,30.882,0,0,0-5.455-.467,32.2,32.2,0,0,0-5.455.467,31.06,31.06,0,0,0-5.454,1.4,1.881,1.881,0,0,0-1.091,1.091,2.113,2.113,0,0,0,1.091,2.805h0a21.852,21.852,0,0,0,5.454,1.558,31.123,31.123,0,0,0,10.754,0A15.616,15.616,0,0,0,39.455,391.55Z" fill="#04294f" />
					<path d="M15.922,289.625a21.874,21.874,0,0,0,5.455,1.559,30.865,30.865,0,0,0,5.455.467,32.188,32.188,0,0,0,5.454-.467,21.862,21.862,0,0,0,5.455-1.559,2.114,2.114,0,0,0,1.091-2.805,2.463,2.463,0,0,0-1.091-1.091,21.9,21.9,0,0,0-5.455-1.558,41.353,41.353,0,0,0-10.753,0,31.157,31.157,0,0,0-5.455,1.4,2.115,2.115,0,0,0-1.091,2.806c.156.779.468,1.091.935,1.246Z" fill="#04294f" />
					<path d="M9.533,306.613a41.008,41.008,0,0,0,8.571,1.4,78.9,78.9,0,0,0,17.143,0,52.007,52.007,0,0,0,8.572-1.559,2.109,2.109,0,0,0,1.4-1.4,2,2,0,0,0-1.4-2.493h0A55.133,55.133,0,0,0,35.247,301,78.9,78.9,0,0,0,18.1,301a52,52,0,0,0-8.571,1.559,2,2,0,0,0-1.4,2.493,1.67,1.67,0,0,0,1.4,1.559Z" fill="#04294f" />
					<path d="M6.883,323.6a65.68,65.68,0,0,0,9.663,1.559c3.272.311,6.389.467,9.662.467s6.39-.156,9.663-.467a69.166,69.166,0,0,0,9.662-1.559,2,2,0,0,0,1.4-2.493,2.1,2.1,0,0,0-1.4-1.4,65.666,65.666,0,0,0-9.662-1.558c-3.273-.312-6.39-.468-9.663-.468s-6.39.156-9.662.468-6.39.779-9.663,1.4a2,2,0,0,0-1.4,2.494,2.056,2.056,0,0,0,1.4,1.558Z" fill="#04294f" />
					<path d="M26.052,342.458c3.273,0,6.39-.156,9.663-.468a69.162,69.162,0,0,0,9.662-1.558,2,2,0,0,0,1.4-2.494,2.093,2.093,0,0,0-1.4-1.4,65.645,65.645,0,0,0-9.662-1.559c-3.273-.312-6.39-.467-9.663-.467-3.117,0-6.389.156-9.662.467a69.2,69.2,0,0,0-9.663,1.559,1.841,1.841,0,0,0-1.4,1.4,2.133,2.133,0,0,0,1.4,2.494h0a49.78,49.78,0,0,0,9.663,1.4A68.452,68.452,0,0,0,26.052,342.458Z" fill="#04294f" />
					<path d="M27.455,359.445a90.3,90.3,0,0,0,9.039-.467,61.023,61.023,0,0,0,9.039-1.559,2,2,0,0,0,1.4-2.493,2.107,2.107,0,0,0-1.4-1.4,57.591,57.591,0,0,0-9.039-1.558,85.478,85.478,0,0,0-9.039-.468,87.7,87.7,0,0,0-9.039.468,90.515,90.515,0,0,0-9.039,1.4,1.842,1.842,0,0,0-1.4,1.4,2,2,0,0,0,1.4,2.493h0a57.593,57.593,0,0,0,9.039,1.559A57.5,57.5,0,0,0,27.455,359.445Z" fill="#04294f" />
					<path d="M28.078,376.433a55.929,55.929,0,0,0,7.325-.468,38.3,38.3,0,0,0,7.325-1.558,1.694,1.694,0,0,0,1.247-1.247,1.917,1.917,0,0,0-1.247-2.494,38.3,38.3,0,0,0-7.325-1.558,57.551,57.551,0,0,0-14.649,0,38.286,38.286,0,0,0-7.325,1.558,2.151,2.151,0,0,0-1.247,2.65c.156.623.623.935,1.247,1.246a28.983,28.983,0,0,0,7.325,1.4A55.924,55.924,0,0,0,28.078,376.433Z" fill="#04294f" />
				</g>
			</g>
		</g>
	</g>

	<!-- ITEM 2 -->
	<g transform="translate(93.0 504.0) scale(0.9902498476538696 0.9876630305381882) rotate(318.18949559741804 164.1 170.09850000000003)">
		<g transform="translate(-0.0 -0.0)">
			<title>robot_arm_6</title>
			<g id="Layer_2-i2" data-name="Layer 2">
				<g id="robot_arm_6-i2">
					<path d="M142.5,296.063h0l-56.1-24.1a11.7,11.7,0,0,0-9,0l-7.7,3.3a10.485,10.485,0,0,1-8.5,0L0,249.563a289.278,289.278,0,0,0,17.1,30.2l113.6,48.2h0C139,331.463,154.3,301.163,142.5,296.063Zm-32.5,3.9a3.194,3.194,0,0,1-3,1.2,36.573,36.573,0,0,1-6.5-1.7c-2.1-.7-4.2-1.5-6.2-2.3a47.259,47.259,0,0,1-6-2.9,42.1,42.1,0,0,1-5.7-3.6,3.156,3.156,0,0,1-.5-4.4,3.251,3.251,0,0,1,2.9-1.2,39.615,39.615,0,0,1,6.6,1.6q3.15,1.05,6.3,2.4a66.25,66.25,0,0,1,6,2.9,34.128,34.128,0,0,1,5.7,3.6,3.36,3.36,0,0,1,.4,4.4Z" fill="#10294c" />
					<path d="M241.5,50.563l-.1-.3a95.251,95.251,0,0,0-4.9-12.5c-1.9-4-4-8-6.2-11.9s-4.6-7.7-7.2-11.4a97.334,97.334,0,0,0-8.5-10.7,12.161,12.161,0,0,0-13-3,12.519,12.519,0,0,0-7.7,14.2,90.037,90.037,0,0,0,3.4,12.6c1.5,4.3,3.1,8.4,4.9,12.5,1.3,2.9,2.6,5.7,4,8.5h0l.1.2.6,1.2c5,10.3,13.4,38.1,20.4,47.6a5.857,5.857,0,0,0,2.8,2.8h.1a5.932,5.932,0,0,0,2.3.5,5.811,5.811,0,0,0,5.6-5.2l4.2-35.5C242.1,56.963,241.8,53.763,241.5,50.563Z" fill="#10294c" />
					<path d="M214.5,100.663l-7.5-32a14.23,14.23,0,0,0-2.8-5.8l-1.2-1.6a73.9,73.9,0,0,0-8-8.8c-2.9-2.7-5.9-5.3-9-7.7s-6.3-4.7-9.7-6.9a72.134,72.134,0,0,0-10.6-5.7,12.365,12.365,0,0,0-13,2.1,12.5,12.5,0,0,0-2.2,15.8,76.52,76.52,0,0,0,6.7,9.4c2.2,2.7,4.6,5.3,7,7.8h0c7.3,7.6,30.3,32.9,41.5,39.3a5.076,5.076,0,0,0,1.8.9h.1a5.537,5.537,0,0,0,3.6-.1A5.654,5.654,0,0,0,214.5,100.663Z" fill="#10294c" />
					<path d="M200.9,115.163,185,95.863a9.017,9.017,0,0,0-3.2-2.3l-3-1.1a38.4,38.4,0,0,0-8.3-2.7,62.406,62.406,0,0,0-8.5-1.3,50.594,50.594,0,0,0-8.7-.2,45.315,45.315,0,0,0-9,1.2,12.92,12.92,0,0,0-7.9,6,13.076,13.076,0,0,0,4.4,17.3,39.754,39.754,0,0,0,7.4,3.8,73.516,73.516,0,0,0,8.3,2.8,69.055,69.055,0,0,0,7.9,1.6h1c7.6,1,23.9,3.5,31,3.7h.8a1.949,1.949,0,0,0,.8-.1,5.666,5.666,0,0,0,3.4-2.2A6.192,6.192,0,0,0,200.9,115.163Z" fill="#10294c" />
					<path d="M275.5,241.863l-56.6,22.8a11.324,11.324,0,0,0-6.3,6.4l-3.1,7.8a11.031,11.031,0,0,1-6,6l-51.8,21a1.613,1.613,0,0,0-.9,2.2h0l6.6,16.2a1.613,1.613,0,0,0,2.2.9l130.2-52.6h0c8.3-3.3-2.4-35.5-14.3-30.7Zm-20.1,25.8a2.945,2.945,0,0,1-1.2,2.9,42.536,42.536,0,0,1-5.8,3.5c-2,1-4,2-6,2.8a58.5,58.5,0,0,1-6.3,2.3,37.121,37.121,0,0,1-6.6,1.5,3.145,3.145,0,0,1-3.5-2.7,2.98,2.98,0,0,1,1.2-2.8,37.213,37.213,0,0,1,5.8-3.5c2-1,4-1.9,6.1-2.8,2.1-.8,4.1-1.6,6.3-2.2a35.23,35.23,0,0,1,6.6-1.5A2.89,2.89,0,0,1,255.4,267.663Z" fill="#10294c" />
					<rect x="252.599" y="127.267" width="21.001" height="113.203" transform="translate(-57.045 160.704) rotate(-30.809)" fill="#10294c" />
					<ellipse cx="230.928" cy="123.298" rx="34.901" ry="38.501" transform="translate(-30.562 135.679) rotate(-30.809)" fill="#f04e23" />
					<path d="M322.7,237.763c-5.4-5.8-17.6-19.8-42.8-13.6a16.553,16.553,0,0,0-2.1.6h0c-10.2,3.2-17.7,13.6-17.7,26a27.777,27.777,0,0,0,9.5,21.3c7.4,7.1,16.1,10.3,34.1,9.8C325,281.363,328.3,243.663,322.7,237.763Z" fill="#10294c" />
					<ellipse cx="303.7" cy="254.863" rx="24.5" ry="27" fill="#f04e23" />
					<path d="M305.7,270.963c-8.2,0-14.9-7.2-14.9-16.1s6.7-16.1,14.9-16.1,14.9,7.2,14.9,16.1S313.9,270.963,305.7,270.963Zm0-26.3c-4.9,0-8.9,4.5-8.9,10.1s4,10.1,8.9,10.1,8.9-4.5,8.9-10.1-4-10.1-8.9-10.1Z" fill="#10294c" />
					<ellipse cx="250.52" cy="113.503" rx="5" ry="5.5" transform="translate(-24.513 113.774) rotate(-24.43)" fill="#10294c" />
					<ellipse cx="240.061" cy="99.52" rx="5" ry="5.5" transform="translate(-17.168 136.493) rotate(-30.696)" fill="#10294c" />
					<path d="M179.7,296.063c-5.4-5.8-17.6-19.8-42.8-13.6a16.553,16.553,0,0,0-2.1.6h0c-10.2,3.2-17.7,13.6-17.7,26a27.777,27.777,0,0,0,9.5,21.3c7.4,7.1,16.2,10.2,34.1,9.8C182,339.563,185.3,301.963,179.7,296.063Z" fill="#10294c" />
					<ellipse cx="160.7" cy="313.163" rx="24.5" ry="27" fill="#f04e23" />
					<path d="M162.7,329.263c-8.2,0-14.9-7.2-14.9-16.1s6.7-16.1,14.9-16.1,14.9,7.2,14.9,16.1S170.9,329.263,162.7,329.263Zm0-26.3c-4.9,0-8.9,4.5-8.9,10.1s4,10.1,8.9,10.1,8.9-4.5,8.9-10.1S167.6,302.963,162.7,302.963Z" fill="#10294c" />
					<path d="M303.8,86.863a34.992,34.992,0,0,1,.8,8.5,56.558,56.558,0,0,1-.6,8.2,52.9,52.9,0,0,1-1.7,7.9,35.7,35.7,0,0,1-3.1,7.6l-4.2,7.3a5.551,5.551,0,0,1-4.1,2.7l-30.2,3.6a5.746,5.746,0,0,1-6.4-5,5.9,5.9,0,0,1,1.9-5l22.6-20.4-8.2,10a32.5,32.5,0,0,1,.7-8.2,49.709,49.709,0,0,1,2.1-7.8,71.226,71.226,0,0,1,3.1-7.6,38.336,38.336,0,0,1,4.6-7.2,13.005,13.005,0,0,1,18.3-1.7,12.164,12.164,0,0,1,4.4,7.1Z" fill="#10294c" />
				</g>
			</g>
		</g>
	</g>

</svg>