<svg xmlns="http://www.w3.org/2000/svg" id="a01bbba8-bc2d-4e66-a086-829e28c11719" data-name="Layer 1" width="719.76946" height="687.25" viewBox="0 0 719.76946 687.25"><title>home_cinema</title><path d="M908.88473,288.962V250.375h-6v38.587a8,8,0,1,0,6,0Z" transform="translate(-240.11527 -106.375)" fill="#e6e6e6"/><path d="M922.88473,678.375h-41v-498h-16v498H824.88467a36.99993,36.99993,0,0,0-36.99994,36.99994v.00006h172v-.00006A36.99994,36.99994,0,0,0,922.88473,678.375Z" transform="translate(-240.11527 -106.375)" fill="#e6e6e6"/><path d="M787.96774,254.375h171.834L949.29391,123.03467A18.19786,18.19786,0,0,0,931.248,106.375H816.52145a18.19786,18.19786,0,0,0-18.0459,16.65967Z" transform="translate(-240.11527 -106.375)" fill="#fa7717"/></svg>