<svg xmlns="http://www.w3.org/2000/svg" id="e9543dae-de41-418f-9290-24abb7460ee9" data-name="Layer 1" width="1012" height="794" viewBox="0 0 1012 794"><title>speed test</title><path d="M517.71667,808A226.92219,226.92219,0,0,0,550,691c0-125.921-102.0791-228-228-228S94,565.079,94,691a226.92219,226.92219,0,0,0,32.28333,117Z" transform="translate(-94 -53)" fill="#363131"/><circle cx="228" cy="623" r="22" fill="#fa7717"/><circle cx="53" cy="659" r="11" fill="#fa7717"/><circle cx="59.45435" cy="563.72636" r="11" fill="#fa7717"/><circle cx="114.05636" cy="485.38515" r="11" fill="#fa7717"/><circle cx="201.20813" cy="446.35574" r="11" fill="#fa7717"/><circle cx="296.01341" cy="457.78748" r="11" fill="#fa7717"/><circle cx="371.38961" cy="516.41472" r="11" fill="#fa7717"/><circle cx="405.80436" cy="605.48969" r="11" fill="#fa7717"/><circle cx="389.42656" cy="699.56675" r="11" fill="#fa7717"/><line x1="228" y1="623" x2="341" y2="537" fill="none" stroke="#fa7717" stroke-miterlimit="10" stroke-width="4"/></svg>